<?xml version="1.0" encoding="UTF-8" standalone="no"?>
<!DOCTYPE svg PUBLIC "-//W3C//DTD SVG 1.1//EN" "http://www.w3.org/Graphics/SVG/1.1/DTD/svg11.dtd">
<svg width="100%" height="100%" viewBox="0 0 1687 451" version="1.1" xmlns="http://www.w3.org/2000/svg" xmlns:xlink="http://www.w3.org/1999/xlink" xml:space="preserve" xmlns:serif="http://www.serif.com/" style="fill-rule:evenodd;clip-rule:evenodd;stroke-linejoin:round;stroke-miterlimit:2;">
    <g id="Artboard1" transform="matrix(1,0,0,1,-29.1825,-384.378)">
        <rect x="29.183" y="384.378" width="1686.11" height="450.297" style="fill:none;"/>
        <g transform="matrix(1,0,0,1,12.916,15.223)">
            <g transform="matrix(19.0703,0,0,19.0703,-484.297,-14489.3)">
                <path d="M39.537,782.967C40.241,783.249 40.933,783.647 41.613,784.161C41.811,784.31 41.977,784.385 42.109,784.385C42.275,784.385 42.408,784.265 42.509,784.025C42.607,783.784 42.682,783.407 42.732,782.893L43.304,782.893C43.237,784.02 43.204,786.027 43.204,788.91L42.632,788.91C42.5,787.783 42.305,786.872 42.047,786.175C41.791,785.479 41.364,784.89 40.768,784.41C40.37,784.028 39.88,783.73 39.3,783.515C38.72,783.299 38.123,783.192 37.509,783.192C36.35,783.192 35.384,783.585 34.614,784.372C33.843,785.16 33.273,786.2 32.909,787.493C32.545,788.786 32.363,790.203 32.363,791.745C32.363,797.481 33.953,800.349 37.138,800.349C37.866,800.349 38.454,800.184 38.903,799.851C39.118,799.703 39.271,799.528 39.362,799.329C39.454,799.13 39.499,798.874 39.499,798.558L39.499,796.121C39.499,795.342 39.432,794.775 39.3,794.418C39.167,794.061 38.931,793.817 38.591,793.685C38.252,793.551 37.717,793.469 36.987,793.436L36.987,792.938C38.015,792.988 39.432,793.013 41.24,793.013C42.715,793.013 43.826,792.988 44.571,792.938L44.571,793.436C44.24,793.469 44.001,793.535 43.85,793.635C43.702,793.735 43.598,793.925 43.539,794.207C43.481,794.489 43.453,794.945 43.453,795.574L43.453,800.498L42.954,800.498C42.938,800.15 42.868,799.827 42.744,799.528C42.619,799.229 42.449,799.08 42.234,799.08C41.951,799.08 41.505,799.255 40.892,799.602C39.449,800.431 38.091,800.845 36.814,800.845C33.946,800.845 31.749,800.062 30.223,798.496C28.699,796.93 27.937,794.729 27.937,791.894C27.937,790.038 28.321,788.405 29.092,786.995C29.862,785.587 30.928,784.492 32.289,783.714C33.647,782.935 35.198,782.545 36.939,782.545C37.966,782.545 38.831,782.686 39.537,782.967" style="fill:rgb(43,45,44);fill-rule:nonzero;"/>
            </g>
            <g transform="matrix(19.0703,0,0,19.0703,-484.297,-14405.4)">
                <path d="M55.984,783.563C56.366,784.011 56.556,784.55 56.556,785.179C56.556,785.794 56.379,786.295 56.022,786.685C55.665,787.073 55.198,787.269 54.617,787.269C54.053,787.269 53.606,787.124 53.275,786.834C52.943,786.544 52.777,786.158 52.777,785.677C52.777,784.882 53.141,784.235 53.871,783.738C53.805,783.721 53.704,783.713 53.572,783.713C53.407,783.713 53.275,783.73 53.175,783.763C52.545,783.862 52.011,784.243 51.571,784.906C51.132,785.569 50.912,786.249 50.912,786.946L50.912,793.534C50.912,794.298 51.099,794.827 51.472,795.126C51.844,795.425 52.437,795.574 53.249,795.574L53.249,796.096C53.017,796.096 52.827,796.089 52.677,796.072C50.986,796.022 49.859,795.996 49.296,795.996C48.848,795.996 47.828,796.022 46.237,796.072C46.104,796.089 45.938,796.096 45.74,796.096L45.74,795.574C46.336,795.574 46.75,795.445 46.983,795.189C47.215,794.932 47.332,794.463 47.332,793.783L47.332,785.95C47.332,785.188 47.215,784.633 46.983,784.285C46.75,783.936 46.336,783.763 45.74,783.763L45.74,783.24C46.271,783.29 46.784,783.316 47.282,783.316C48.757,783.316 49.966,783.199 50.912,782.967L50.912,785.28C51.226,784.566 51.683,783.991 52.279,783.551C52.876,783.112 53.548,782.892 54.293,782.892C55.04,782.892 55.603,783.117 55.984,783.563" style="fill:rgb(43,45,44);fill-rule:nonzero;"/>
            </g>
            <g transform="matrix(19.0703,0,0,19.0703,-484.297,-14402)">
                <path d="M64.24,793.483L64.24,788.387C64.041,788.717 63.618,789.082 62.971,789.481C62.325,789.895 61.836,790.31 61.504,790.724C61.173,791.138 61.007,791.735 61.007,792.513C61.007,793.193 61.147,793.695 61.429,794.019C61.712,794.342 62.085,794.503 62.548,794.503C63.194,794.503 63.759,794.163 64.24,793.483M58.259,795.274C57.737,794.728 57.476,794.005 57.476,793.111C57.476,792.364 57.67,791.747 58.06,791.258C58.45,790.769 58.922,790.391 59.477,790.127C60.033,789.862 60.742,789.579 61.604,789.281C62.514,788.966 63.182,788.681 63.606,788.423C64.028,788.167 64.24,787.814 64.24,787.367L64.24,785.427C64.24,784.73 64.078,784.189 63.754,783.799C63.431,783.409 62.93,783.214 62.25,783.214C61.455,783.214 60.849,783.413 60.435,783.811C60.898,783.976 61.259,784.225 61.517,784.557C61.774,784.888 61.901,785.278 61.901,785.726C61.901,786.289 61.712,786.737 61.331,787.068C60.948,787.4 60.485,787.566 59.937,787.566C59.358,787.566 58.91,787.383 58.594,787.019C58.28,786.653 58.122,786.198 58.122,785.65C58.122,785.187 58.234,784.793 58.458,784.469C58.682,784.146 59.025,783.844 59.49,783.562C59.937,783.298 60.488,783.09 61.144,782.941C61.798,782.791 62.514,782.717 63.294,782.717C64.106,782.717 64.811,782.8 65.409,782.965C66.005,783.131 66.503,783.413 66.901,783.811C67.265,784.175 67.509,784.623 67.634,785.154C67.758,785.684 67.82,786.406 67.82,787.317L67.82,794.081C67.82,794.479 67.857,794.761 67.933,794.926C68.007,795.092 68.151,795.174 68.367,795.174C68.616,795.174 68.914,795.034 69.262,794.752L69.511,795.174C68.764,795.788 67.854,796.095 66.776,796.095C65.864,796.095 65.225,795.913 64.861,795.547C64.497,795.183 64.305,794.694 64.289,794.081C63.46,795.423 62.241,796.095 60.634,796.095C59.573,796.095 58.781,795.82 58.259,795.274" style="fill:rgb(43,45,44);fill-rule:nonzero;"/>
            </g>
            <g transform="matrix(19.0703,0,0,19.0703,-484.297,-14524.4)">
                <path d="M81.347,783.115C81.96,783.264 82.499,783.489 82.963,783.787C83.261,783.969 83.505,784.21 83.696,784.508C83.888,784.806 83.983,785.129 83.983,785.479C83.983,786.075 83.78,786.543 83.373,786.883C82.966,787.222 82.391,787.392 81.644,787.392C80.916,787.392 80.344,787.222 79.929,786.883C79.515,786.543 79.307,786.082 79.307,785.503C79.307,785.071 79.453,784.695 79.743,784.373C80.033,784.048 80.435,783.812 80.949,783.663C80.782,783.563 80.555,783.484 80.265,783.426C79.975,783.368 79.664,783.34 79.333,783.34C77.89,783.34 76.829,783.954 76.15,785.18C75.902,785.61 75.727,786.144 75.628,786.783C75.528,787.421 75.478,788.329 75.478,789.507L78.438,789.507C79.781,789.507 80.828,789.485 81.584,789.445C82.337,789.403 83.062,789.325 83.759,789.207L83.759,800.024C83.759,800.705 83.888,801.173 84.144,801.43C84.401,801.686 84.853,801.816 85.499,801.816L85.499,802.337C83.709,802.27 82.557,802.236 82.044,802.236C81.529,802.236 80.377,802.27 78.586,802.337L78.586,801.816C79.183,801.816 79.597,801.686 79.829,801.43C80.062,801.173 80.178,800.705 80.178,800.024L80.178,792.191C80.178,791.43 80.049,790.873 79.793,790.527C79.535,790.177 79.084,790.004 78.438,790.004L75.478,790.004L75.478,800.024C75.478,800.705 75.644,801.173 75.976,801.43C76.307,801.686 76.805,801.816 77.468,801.816L77.468,802.337L76.821,802.312C75.181,802.263 74.161,802.236 73.763,802.236C73.232,802.236 72.197,802.263 70.655,802.312C70.538,802.33 70.373,802.337 70.157,802.337L70.157,801.816C70.804,801.816 71.256,801.686 71.512,801.43C71.769,801.173 71.898,800.705 71.898,800.024L71.898,790.004L70.058,790.004L70.058,789.507L71.898,789.507C71.898,787.466 72.552,785.818 73.862,784.557C74.441,784.027 75.181,783.618 76.075,783.326C76.97,783.037 77.94,782.892 78.984,782.892C79.946,782.892 80.734,782.966 81.347,783.115" style="fill:rgb(43,45,44);fill-rule:nonzero;"/>
            </g>
            <g transform="matrix(19.0703,0,0,19.0703,-484.297,-14403.9)">
                <path d="M91.592,793.709C91.592,794.389 91.712,794.858 91.953,795.114C92.193,795.371 92.603,795.5 93.184,795.5L93.184,796.022C91.525,795.955 90.423,795.922 89.877,795.922C89.363,795.922 88.211,795.955 86.42,796.022L86.42,795.5C87.016,795.5 87.43,795.371 87.663,795.114C87.895,794.858 88.012,794.389 88.012,793.709L88.012,785.876C88.012,785.114 87.895,784.559 87.663,784.211C87.43,783.862 87.016,783.689 86.42,783.689L86.42,783.166C86.951,783.216 87.464,783.241 87.962,783.241C89.437,783.241 90.646,783.125 91.592,782.892L91.592,793.709Z" style="fill:rgb(43,45,44);fill-rule:nonzero;"/>
            </g>
            <g transform="matrix(19.0703,0,0,19.0703,-484.297,-14797.3)">
                <path d="M91.307,798.366C91.712,798.706 91.916,799.175 91.916,799.771C91.916,800.368 91.712,800.837 91.307,801.177C90.9,801.517 90.349,801.687 89.652,801.687C88.956,801.687 88.405,801.517 88,801.177C87.593,800.837 87.39,800.368 87.39,799.771C87.39,799.175 87.593,798.706 88,798.366C88.405,798.028 88.956,797.856 89.652,797.856C90.349,797.856 90.9,798.028 91.307,798.366" style="fill:rgb(43,45,44);fill-rule:nonzero;"/>
            </g>
            <g transform="matrix(19.0703,0,0,19.0703,-484.297,-14469.9)">
                <path d="M99.3,786.622L102.234,786.622L102.234,787.12L99.3,787.12L99.3,797.165C99.3,797.663 99.388,798.015 99.561,798.223C99.736,798.43 100.013,798.533 100.394,798.533C101.108,798.533 101.671,798.037 102.085,797.041L102.508,797.266C101.877,798.973 100.742,799.826 99.101,799.826C98.007,799.826 97.178,799.545 96.615,798.981C96.266,798.633 96.031,798.197 95.906,797.675C95.782,797.153 95.72,796.437 95.72,795.525L95.72,787.12L93.631,787.12L93.631,786.622L95.72,786.622L95.72,783.341C97.095,783.341 98.289,783.075 99.3,782.544L99.3,786.622Z" style="fill:rgb(43,45,44);fill-rule:nonzero;"/>
            </g>
            <g transform="matrix(19.0703,0,0,19.0703,-484.297,-14398.7)">
                <path d="M109.669,782.781C110.2,782.939 110.605,783.116 110.888,783.315C111.053,783.432 111.202,783.49 111.335,783.49C111.484,783.49 111.613,783.411 111.721,783.253C111.829,783.095 111.898,782.867 111.932,782.568L112.454,782.568C112.387,783.415 112.355,784.874 112.355,786.946L111.833,786.946C111.683,785.851 111.355,784.936 110.85,784.198C110.344,783.461 109.611,783.092 108.649,783.092C108.153,783.092 107.742,783.232 107.418,783.514C107.095,783.796 106.934,784.185 106.934,784.683C106.934,785.247 107.124,785.731 107.506,786.138C107.887,786.543 108.484,787.037 109.296,787.616L110.018,788.138C111.029,788.902 111.774,789.582 112.255,790.178C112.736,790.775 112.976,791.521 112.976,792.417C112.976,793.145 112.765,793.792 112.342,794.355C111.92,794.919 111.352,795.351 110.639,795.648C109.925,795.947 109.138,796.096 108.277,796.096C107.365,796.096 106.587,795.923 105.94,795.574C105.409,795.31 105.028,795.135 104.796,795.052C104.63,795.001 104.485,795.056 104.36,795.214C104.236,795.372 104.14,795.607 104.075,795.923L103.553,795.923C103.618,794.977 103.651,793.32 103.651,790.949L104.173,790.949C104.506,794 105.624,795.525 107.531,795.525C108.012,795.525 108.421,795.379 108.761,795.089C109.101,794.8 109.271,794.355 109.271,793.758C109.271,793.296 109.168,792.88 108.96,792.515C108.752,792.151 108.491,791.828 108.177,791.546C107.861,791.265 107.389,790.875 106.76,790.377C106.014,789.781 105.445,789.299 105.057,788.935C104.667,788.571 104.336,788.138 104.063,787.642C103.788,787.144 103.651,786.589 103.651,785.976C103.651,784.915 104.066,784.079 104.894,783.464C105.723,782.851 106.735,782.544 107.928,782.544C108.558,782.544 109.138,782.623 109.669,782.781" style="fill:rgb(43,45,44);fill-rule:nonzero;"/>
            </g>
        </g>
    </g>
</svg>
